<svg width="40" height="40" viewBox="0 0 40 40" fill="none" xmlns="http://www.w3.org/2000/svg">
<rect width="40" height="40" rx="20" fill="#31916E"/>
<path d="M20 10.25C20.6223 10.25 21.125 10.7527 21.125 11.375V13.625H25.3438C26.743 13.625 27.875 14.757 27.875 16.1562V25.7188C27.875 27.118 26.743 28.25 25.3438 28.25H14.6562C13.257 28.25 12.125 27.118 12.125 25.7188V16.1562C12.125 14.757 13.257 13.625 14.6562 13.625H18.875V11.375C18.875 10.7527 19.3777 10.25 20 10.25ZM16.0625 23.75C15.7531 23.75 15.5 24.0031 15.5 24.3125C15.5 24.6219 15.7531 24.875 16.0625 24.875H17.1875C17.4969 24.875 17.75 24.6219 17.75 24.3125C17.75 24.0031 17.4969 23.75 17.1875 23.75H16.0625ZM19.4375 23.75C19.1281 23.75 18.875 24.0031 18.875 24.3125C18.875 24.6219 19.1281 24.875 19.4375 24.875H20.5625C20.8719 24.875 21.125 24.6219 21.125 24.3125C21.125 24.0031 20.8719 23.75 20.5625 23.75H19.4375ZM22.8125 23.75C22.5031 23.75 22.25 24.0031 22.25 24.3125C22.25 24.6219 22.5031 24.875 22.8125 24.875H23.9375C24.2469 24.875 24.5 24.6219 24.5 24.3125C24.5 24.0031 24.2469 23.75 23.9375 23.75H22.8125ZM18.0312 19.25C18.0312 18.877 17.8831 18.5194 17.6194 18.2556C17.3556 17.9919 16.998 17.8438 16.625 17.8438C16.252 17.8438 15.8944 17.9919 15.6306 18.2556C15.3669 18.5194 15.2188 18.877 15.2188 19.25C15.2188 19.623 15.3669 19.9806 15.6306 20.2444C15.8944 20.5081 16.252 20.6562 16.625 20.6562C16.998 20.6562 17.3556 20.5081 17.6194 20.2444C17.8831 19.9806 18.0312 19.623 18.0312 19.25ZM23.375 20.6562C23.748 20.6562 24.1056 20.5081 24.3694 20.2444C24.6331 19.9806 24.7812 19.623 24.7812 19.25C24.7812 18.877 24.6331 18.5194 24.3694 18.2556C24.1056 17.9919 23.748 17.8438 23.375 17.8438C23.002 17.8438 22.6444 17.9919 22.3806 18.2556C22.1169 18.5194 21.9688 18.877 21.9688 19.25C21.9688 19.623 22.1169 19.9806 22.3806 20.2444C22.6444 20.5081 23.002 20.6562 23.375 20.6562ZM10.4375 18.125H11V24.875H10.4375C9.50586 24.875 8.75 24.1191 8.75 23.1875V19.8125C8.75 18.8809 9.50586 18.125 10.4375 18.125ZM29.5625 18.125C30.4941 18.125 31.25 18.8809 31.25 19.8125V23.1875C31.25 24.1191 30.4941 24.875 29.5625 24.875H29V18.125H29.5625Z" fill="white"/>
</svg>
